#!OML:ASF E:\motion texture\Top Level 1\Subject 1\Session 1\male.ASF
:FULLY-SPECIFIED
:DEGREES
612
root -38.9294 17.8709 2.1256 753.158 -84.1601 -748.11
lowerback -3.84929 -0.298542 4.01691
upperback -4.31423 -0.565623 2.60178
thorax -2.29539 -0.405254 0.419534
lowerneck -3.25635 -4.51851 -7.76993
upperneck -23.7468 -5.64217 9.68554
head -6.10152 -3.16508 4.70522
rclavicle 1.93815e-015 -2.54444e-014
rhumerus 59.6067 3.01451 -63.8832
rradius 65.6902
rwrist -22.2998
rhand -14.9536 -38.6577
rfingers 7.12502
rthumb 11.2095 -428.338
lclavicle 1.93815e-015 -2.54444e-014
lhumerus -11.4973 -9.14007 90.1164
lradius 48.0237
lwrist -12.3822
lhand -13.8223 23.1369
lfingers 7.12502
lthumb 12.3004 52.7552
rfemur -26.6201 0.982899 21.9213
rtibia 20.4448
rfoot -1.74844 -14.0801
rtoes 14.2334
lfemur 0.357204 -4.44788 -15.2567
ltibia 35.4128
lfoot -1.20986 -8.75751
ltoes -16.5219
613
root -39.0953 17.8741 2.09832 755.278 -84.0118 -750.395
lowerback -3.87113 -0.32329 4.17592
upperback -4.29522 -0.605144 2.70094
thorax -2.26573 -0.428237 0.431944
lowerneck -3.12542 -4.46276 -7.7491
upperneck -24.0473 -5.57749 9.70923
head -6.22593 -3.144 4.72712
rclavicle -3.47873e-015 4.6118e-014
rhumerus 59.2492 3.08538 -62.8919
rradius 66.2716
rwrist -21.2051
rhand -15.3012 -38.1699
rfingers 7.12502
rthumb 10.8742 -427.868
lclavicle -3.47873e-015 4.6118e-014
lhumerus -11.4087 -9.61997 90.3219
lradius 48.6712
lwrist -12.0659
lhand -13.8837 23.2197
lfingers 7.12502
lthumb 12.2412 52.8415
rfemur -26.062 1.14174 22.474
rtibia 20.7
rfoot -1.72222 -13.738
rtoes 14.8738
lfemur -0.201139 -4.29662 -14.7742
ltibia 36.8544
lfoot -0.374642 -8.72245
ltoes -16.354
614
root -39.2605 17.8779 2.07139 757.415 -83.8677 -752.695
lowerback -3.89233 -0.342353 4.34062
upperback -4.27475 -0.637554 2.80153
thorax -2.23491 -0.447785 0.442798
lowerneck -2.99034 -4.40736 -7.73033
upperneck -24.3498 -5.5136 9.73294
head -6.35201 -3.12329 4.74975
rclavicle 1.02871e-014 -3.4191e-014
rhumerus 58.8508 3.18026 -61.9239
rradius 66.8798
rwrist -20.0827
rhand -15.6348 -37.6664
rfingers 7.12502
rthumb 10.5524 -427.382
lclavicle 1.02871e-014 -3.4191e-014
lhumerus -11.3241 -10.1035 90.5263
lradius 49.3341
lwrist -11.7606
lhand -13.9509 23.3013
lfingers 7.12502
lthumb 12.1765 52.9269
rfemur -25.4763 1.31155 23.0323
rtibia 20.9193
rfoot -1.72178 -13.4122
rtoes 15.4983
lfemur -0.807865 -4.12648 -14.2939
ltibia 38.3121
lfoot 0.416605 -8.65483
ltoes -16.1811
615
root -39.4249 17.8824 2.04489 759.537 -83.7286 -754.981
lowerback -3.9138 -0.356374 4.50737
upperback -4.25304 -0.663684 2.90243
thorax -2.2026 -0.464214 0.452959
lowerneck -2.85327 -4.35211 -7.7131
upperneck -24.6513 -5.45028 9.75535
head -6.47863 -3.10272 4.77239
rclavicle 1.58034e-014 -4.37326e-014
rhumerus 58.4176 3.29874 -60.9816
rradius 67.5139
rwrist -18.9379
rhand -15.9462 -37.1421
rfingers 7.12502
rthumb 10.2521 -426.872
lclavicle 1.58034e-014 -4.37326e-014
lhumerus -11.2386 -10.5921 90.7279
lradius 50.0123
lwrist -11.4662
lhand -14.0209 23.3848
lfingers 7.12502
lthumb 12.109 53.0144
rfemur -24.8646 1.48852 23.5908
rtibia 21.0996
rfoot -1.74826 -13.1018
rtoes 16.0954
lfemur -1.46177 -3.93903 -13.8222
ltibia 39.7776
lfoot 1.14703 -8.55565
ltoes -16.0258
616
root -39.5883 17.8875 2.01888 761.674 -83.5931 -757.281
lowerback -3.93601 -0.364626 4.67958
upperback -4.22987 -0.682722 3.00375
thorax -2.16834 -0.477201 0.460651
lowerneck -2.71385 -4.2963 -7.69826
upperneck -24.9517 -5.38634 9.77786
head -6.6058 -3.08172 4.79564
rclavicle 1.39149e-015 -7.95139e-016
rhumerus 57.9562 3.43892 -60.0664
rradius 68.1701
rwrist -17.7751
rhand -16.239 -36.5973
rfingers 7.12502
rthumb 9.96955 -426.341
lclavicle 1.39149e-015 -7.95139e-016
lhumerus -11.1498 -11.0879 90.9255
lradius 50.7085
lwrist -11.1818
lhand -14.0948 23.4652
lfingers 7.12502
lthumb 12.0377 53.099
rfemur -24.2286 1.67281 24.1517
rtibia 21.2407
rfoot -1.80302 -12.8075
rtoes 16.6643
lfemur -2.16016 -3.73368 -13.3569
ltibia 41.2422
lfoot 1.82745 -8.43244
ltoes -15.8416
617
root -39.7507 17.8932 1.99341 763.809 -83.4626 -759.575
lowerback -3.95795 -0.367212 4.85454
upperback -4.20572 -0.694651 3.10422
thorax -2.13313 -0.486686 0.466112
lowerneck -2.57186 -4.24033 -7.68638
upperneck -25.2529 -5.32214 9.80204
head -6.7341 -3.0606 4.8202
rclavicle -5.2181e-015 1.43125e-014
rhumerus 57.4716 3.59951 -59.1799
rradius 68.8447
rwrist -16.5991
rhand -16.5153 -36.0333
rfingers 7.12502
rthumb 9.70302 -425.79
lclavicle -5.2181e-015 1.43125e-014
lhumerus -11.0555 -11.5924 91.1175
lradius 51.4244
lwrist -10.9084
lhand -14.1672 23.5467
lfingers 7.12502
lthumb 11.9679 53.1845
rfemur -23.5707 1.86205 24.7105
rtibia 21.3425
rfoot -1.88294 -12.5282
rtoes 17.203
lfemur -2.90125 -3.51059 -12.9032
ltibia 42.6978
lfoot 2.43937 -8.28604
ltoes -15.6629
618
root -39.9119 17.8994 1.96847 765.936 -83.3373 -761.858
lowerback -3.98155 -0.364219 5.03015
upperback -4.18008 -0.699704 3.20375
thorax -2.09531 -0.492688 0.470398
lowerneck -2.42976 -4.18441 -7.67774
upperneck -25.5546 -5.25796 9.82768
head -6.86298 -3.03942 4.846
rclavicle -1.93815e-015 -7.95139e-015
rhumerus 56.9716 3.778 -58.3215
rradius 69.5356
rwrist -15.4148
rhand -16.7733 -35.4512
rfingers 7.12502
rthumb 9.45407 -425.219
lclavicle -1.93815e-015 -7.95139e-015
lhumerus -10.951 -12.1068 91.3024
lradius 52.162
lwrist -10.6438
lhand -14.2405 23.628
lfingers 7.12502
lthumb 11.8972 53.27
rfemur -22.8946 2.05527 25.2646
rtibia 21.4068
rfoot -1.98736 -12.2675
rtoes 17.6976
lfemur -3.68339 -3.27091 -12.4635
ltibia 44.1361
lfoot 2.97796 -8.1196
ltoes -15.4906
619
root -40.0717 17.9062 1.94416 768.064 -83.2166 -764.137
lowerback -4.00491 -0.355969 5.2078
upperback -4.15393 -0.698181 3.30185
thorax -2.05698 -0.495444 0.472262
lowerneck -2.29187 -4.12982 -7.6668
upperneck -25.851 -5.19619 9.8488
head -6.99001 -3.01921 4.86973
rclavicle -1.59028e-015 -6.75868e-014
rhumerus 56.4614 3.97409 -57.4928
rradius 70.2398
rwrist -14.2255
rhand -17.0144 -34.8574
rfingers 7.12502
rthumb 9.22142 -424.636
lclavicle -1.59028e-015 -6.75868e-014
lhumerus -10.8352 -12.6307 91.4779
lradius 52.9219
lwrist -10.389
lhand -14.3198 23.7008
lfingers 7.12502
lthumb 11.8208 53.3472
rfemur -22.2019 2.24992 25.8139
rtibia 21.4354
rfoot -2.11203 -12.0245
rtoes 18.1471
lfemur -4.50355 -3.01547 -12.0389
ltibia 45.5486
lfoot 3.43665 -7.93307
ltoes -15.3209
620
root -40.2301 17.9135 1.92046 770.183 -83.1026 -766.401
lowerback -4.02744 -0.342521 5.3845
upperback -4.12849 -0.689969 3.39731
thorax -2.01966 -0.494874 0.472172
lowerneck -2.1498 -4.07462 -7.65917
upperneck -26.1489 -5.13343 9.87277
head -7.11873 -2.99859 4.89534
rclavicle -6.75868e-015 4.05521e-014
rhumerus 55.9449 4.18634 -56.694
rradius 70.953
rwrist -13.0336
rhand -17.2403 -34.2501
rfingers 7.12502
rthumb 9.00348 -424.038
lclavicle -6.75868e-015 4.05521e-014
lhumerus -10.707 -13.1658 91.6415
lradius 53.7068
lwrist -10.1427
lhand -14.3982 23.7698
lfingers 7.12502
lthumb 11.7452 53.4205
rfemur -21.4968 2.44705 26.3532
rtibia 21.43
rfoot -2.25476 -11.8024
rtoes 18.5571
lfemur -5.36003 -2.74514 -11.6338
ltibia 46.9274
lfoot 3.81433 -7.72893
ltoes -15.1587
621
root -40.3869 17.9211 1.89741 772.311 -82.9942 -768.669
lowerback -4.04878 -0.324036 5.56174
upperback -4.10354 -0.675293 3.49054
thorax -1.98333 -0.491125 0.469725
lowerneck -2.01036 -4.01903 -7.65282
upperneck -26.443 -5.06998 9.89733
head -7.24637 -2.97758 4.92124
rclavicle -1.16289e-014 1.74931e-014
rhumerus 55.4285 4.41225 -55.9263
rradius 71.6713
rwrist -11.8427
rhand -17.452 -33.6175
rfingers 7.12502
rthumb 8.79917 -423.414
lclavicle -1.16289e-014 1.74931e-014
lhumerus -10.5625 -13.7109 91.7909
lradius 54.517
lwrist -9.90703
lhand -14.4767 23.8332
lfingers 7.12502
lthumb 11.6695 53.4882
rfemur -20.7816 2.64582 26.8839
rtibia 21.3928
rfoot -2.41387 -11.6008
rtoes 18.9284
lfemur -6.24963 -2.45997 -11.2468
ltibia 48.2641
lfoot 4.11059 -7.50861
ltoes -15.0088
